<svg viewBox="0 0 440 440" xmlns="http://www.w3.org/2000/svg">
  <defs>
    <linearGradient id="heroSky" x1="0" y1="0" x2="0" y2="1">
      <stop offset="0%" stop-color="#e8e2d4"/>
      <stop offset="100%" stop-color="#f0ead9"/>
    </linearGradient>
  </defs>
  <rect width="440" height="440" fill="url(#heroSky)"/>
  <ellipse cx="110" cy="320" rx="160" ry="90" fill="#4a6267" opacity="0.07"/>
  <ellipse cx="340" cy="350" rx="190" ry="110" fill="#4a6267" opacity="0.05"/>
  <path d="M50 440 Q210 210 350 440Z" fill="#4a6267" opacity="0.09"/>
  <path d="M220 440 Q217 360 214 280 Q212 245 220 185" stroke="#1d1c13" stroke-width="3" fill="none" opacity="0.45" stroke-linecap="round"/>
  <path d="M220 255 Q188 235 155 195" stroke="#1d1c13" stroke-width="1.5" fill="none" opacity="0.38" stroke-linecap="round"/>
  <path d="M217 285 Q248 260 280 238" stroke="#1d1c13" stroke-width="1.5" fill="none" opacity="0.38" stroke-linecap="round"/>
  <path d="M218 315 Q194 300 170 275" stroke="#1d1c13" stroke-width="1.5" fill="none" opacity="0.32" stroke-linecap="round"/>
  <path d="M220 340 Q242 325 268 312" stroke="#1d1c13" stroke-width="1.5" fill="none" opacity="0.32" stroke-linecap="round"/>
  <path d="M155 195 Q138 190 120 180" stroke="#1d1c13" stroke-width="1" fill="none" opacity="0.28" stroke-linecap="round"/>
  <path d="M155 195 Q148 178 142 162" stroke="#1d1c13" stroke-width="1" fill="none" opacity="0.28" stroke-linecap="round"/>
  <path d="M280 238 Q296 228 312 222" stroke="#1d1c13" stroke-width="1" fill="none" opacity="0.28" stroke-linecap="round"/>
  <path d="M280 238 Q287 220 293 205" stroke="#1d1c13" stroke-width="1" fill="none" opacity="0.28" stroke-linecap="round"/>
  <path d="M220 185 Q204 158 182 135" stroke="#1d1c13" stroke-width="1.5" fill="none" opacity="0.38" stroke-linecap="round"/>
  <path d="M220 185 Q237 162 252 140" stroke="#1d1c13" stroke-width="1.5" fill="none" opacity="0.38" stroke-linecap="round"/>
  <rect x="305" y="355" width="56" height="9" rx="2" fill="#4a6267" opacity="0.25"/>
  <path d="M298 355 L333 338 L368 355Z" fill="#4a6267" opacity="0.2"/>
  <path d="M85 125 Q90 120 95 125" stroke="#1d1c13" stroke-width="1.5" fill="none" opacity="0.18" stroke-linecap="round"/>
  <path d="M108 105 Q113 100 118 105" stroke="#1d1c13" stroke-width="1.5" fill="none" opacity="0.18" stroke-linecap="round"/>
  <path d="M138 135 Q143 130 148 135" stroke="#1d1c13" stroke-width="1.5" fill="none" opacity="0.14" stroke-linecap="round"/>
  <text x="355" y="105" font-family="serif" font-size="52" fill="#1d1c13" opacity="0.06" text-anchor="middle">自</text>
  <text x="65" y="395" font-family="serif" font-size="28" fill="#1d1c13" opacity="0.06" text-anchor="middle">由</text>
</svg>
