<svg viewBox="0 0 560 480" xmlns="http://www.w3.org/2000/svg">
  <defs>
    <linearGradient id="teaBg" x1="0" y1="0" x2="0" y2="1">
      <stop offset="0%" stop-color="#e0d9c8"/>
      <stop offset="100%" stop-color="#ccc4b0"/>
    </linearGradient>
    <linearGradient id="potGrad" x1="0" y1="0" x2="0" y2="1">
      <stop offset="0%" stop-color="#2a3b2e"/>
      <stop offset="100%" stop-color="#1a2a1e"/>
    </linearGradient>
  </defs>
  <rect width="560" height="480" fill="url(#teaBg)"/>
  <rect x="0" y="360" width="560" height="120" fill="#b8ae98" opacity="0.4"/>
  <ellipse cx="280" cy="362" rx="260" ry="18" fill="#a89e88" opacity="0.35"/>
  <ellipse cx="200" cy="340" rx="120" ry="8" fill="#9e9484" opacity="0.3"/>
  <rect x="100" y="300" width="360" height="12" rx="4" fill="#8a7e6a" opacity="0.4"/>
  <rect x="80" y="308" width="400" height="8" rx="3" fill="#7e7262" opacity="0.3"/>
  <ellipse cx="255" cy="290" rx="85" ry="62" fill="url(#potGrad)"/>
  <ellipse cx="255" cy="232" rx="45" ry="18" fill="#2a3b2e"/>
  <ellipse cx="255" cy="230" rx="40" ry="14" fill="#3d5440"/>
  <rect x="240" y="200" width="30" height="32" rx="4" fill="#2a3b2e"/>
  <ellipse cx="255" cy="200" rx="18" ry="8" fill="#2a3b2e"/>
  <path d="M170 265 Q145 255 148 275 Q151 295 170 285Z" fill="#2a3b2e"/>
  <path d="M340 270 Q365 260 362 280 Q359 300 340 290Z" fill="#2a3b2e"/>
  <ellipse cx="165" cy="330" rx="36" ry="20" fill="#3d5440" opacity="0.9"/>
  <ellipse cx="165" cy="322" rx="32" ry="16" fill="#4a6247"/>
  <ellipse cx="340" cy="326" rx="30" ry="17" fill="#3d5440" opacity="0.9"/>
  <ellipse cx="340" cy="318" rx="26" ry="13" fill="#4a6247"/>
  <path d="M255 232 Q268 215 272 195 Q275 180 265 172" stroke="#4a6267" stroke-width="2" fill="none" opacity="0.5" stroke-linecap="round"/>
  <text x="440" y="120" font-family="serif" font-size="64" fill="#1d1c13" opacity="0.05" text-anchor="middle">茶</text>
  <text x="80" y="420" font-family="serif" font-size="28" fill="#1d1c13" opacity="0.08" text-anchor="middle">和</text>
</svg>
